<svg width="107" height="25" viewBox="0 0 107 25" fill="none" xmlns="http://www.w3.org/2000/svg">
<path d="M3.07118 25V22.5H0V13.125H3.07118V10H18.4271V13.125H21.4983V19.375H6.14237V21.875H18.4271V25H3.07118ZM6.14237 16.25H15.3559V13.125H6.14237V16.25Z" fill="#21222C"/>
<path d="M24.5695 3.125V0H30.7118V3.125H24.5695ZM15.3559 25V21.875H24.5695V9.375H21.4983V6.25H30.7118V21.875H27.6406V25H15.3559Z" fill="#21222C"/>
<path d="M33.6602 21.875V18.75H30.589V6.25H36.7313V18.75H45.9449V6.25H52.0873V21.875H33.6602Z" fill="#21222C"/>
<path d="M58.1068 3.125V0H64.2491V3.125H58.1068ZM51.9644 21.875V18.75H58.1068V9.375H55.0356V6.25H64.2491V18.75H70.3915V21.875H51.9644Z" fill="#21222C"/>
<path d="M70.2687 21.875V18.75H67.1975V9.375H70.2687V6.25H88.6958V9.375H73.3398V18.75H88.6958V21.875H70.2687Z" fill="#21222C"/>
<path d="M94.7153 9.375H97.7865V12.5H94.7153V21.875H88.5729V6.25H94.7153V9.375ZM107 6.25V9.375H97.7865V6.25H107Z" fill="#21222C"/>
</svg>
